Coordinates
version=1
nRows=9
nColumns=24
inDegrees=yes

Units are S.I. units (second, meters, Newtons, ...)
Angles are in degrees.

endheader
time	pelvis_tilt	pelvis_list	pelvis_rotation	pelvis_tx	pelvis_ty	pelvis_tz	hip_flexion_r	hip_adduction_r	hip_rotation_r	knee_angle_r	ankle_angle_r	subtalar_angle_r	mtp_angle_r	hip_flexion_l	hip_adduction_l	hip_rotation_l	knee_angle_l	ankle_angle_l	subtalar_angle_l	mtp_angle_l	lumbar_extension	lumbar_bending	lumbar_rotation
      1.11000000	      5.53711476	     -6.74679506	      0.12383626	     -0.50427701	      0.89084955	      0.00103328	    -27.69755145	      8.78312644	     -3.01165243	     -8.24614631	     14.74508379	      2.25501795	     45.86252822	     17.28598891	     -5.51724052	     -4.33701186	     -3.87657996	     12.21231348	      0.77224200	     28.59965941	    -16.35676392	      5.42217491	      1.83122332
      1.11500000	      5.36845390	     -6.65831834	      0.14532342	     -0.49565449	      0.88980545	      0.00028534	    -27.42330987	      8.54685041	     -3.05130602	     -9.42351629	     14.47620744	      2.63958340	     46.20442589	     17.62003760	     -5.30345715	     -3.82503206	     -4.59111006	     11.80664937	     -0.20163319	     29.35247168	    -16.15272838	      5.33134120	      1.68994150
      1.12000000	      5.08803699	     -6.55195311	      0.15242503	     -0.48701865	      0.88871563	     -0.00036503	    -26.98969818	      8.31268678	     -2.93083868	    -10.64370844	     14.00027692	      2.61812725	     47.58076545	     18.12706363	     -5.07897991	     -3.42638545	     -5.52375013	     11.34953481	     -1.06341317	     30.54135669	    -15.82460428	      5.20778341	      1.45201379
      1.12500000	      4.96538639	     -6.39488025	      0.07743217	     -0.47843745	      0.88797343	     -0.00094248	    -26.62956850	      7.98187969	     -2.77837866	    -12.01742246	     13.43355593	      2.51544632	     49.93126144	     18.42505498	     -4.83331707	     -3.22384341	     -6.51299942	     10.84532694	     -1.76578944	     31.94346222	    -15.69053100	      5.00739309	      1.39616388
      1.13000000	      4.68098961	     -6.26594517	      0.12007024	     -0.46996119	      0.88701523	     -0.00173347	    -25.99761128	      7.73334109	     -2.72135289	    -13.55974094	     12.95028022	      2.63598961	     50.53024221	     19.00063762	     -4.56422338	     -2.77491559	     -7.74049505	     10.44945973	     -2.51760382	     32.09405333	    -15.37393514	      4.87313437	      1.21223308
      1.13500000	      4.41373936	     -6.08597387	      0.22639914	     -0.46147995	      0.88614046	     -0.00255145	    -25.34259820	      7.48032618	     -2.67806498	    -15.12205272	     12.14715778	      2.26041868	     53.22303221	     19.59015986	     -4.22642373	     -2.35003390	     -9.09063717	     10.00113597	     -3.22400563	     33.09449752	    -15.07347856	      4.68571159	      0.88262142
      1.14000000	      4.06337830	     -5.92944558	      0.31958717	     -0.45311271	      0.88523098	     -0.00345578	    -24.46939589	      7.23230592	     -2.65074336	    -16.92255392	     11.47050641	      2.27706672	     53.87386927	     20.28799384	     -3.90058969	     -1.87191347	    -10.53551079	      9.60272864	     -3.90647411	     33.23826493	    -14.69189187	      4.53324612	      0.63483902
      1.14500000	      3.76142761	     -5.72606601	      0.49500775	     -0.44476919	      0.88441935	     -0.00439073	    -23.60613390	      6.99087267	     -2.66413614	    -18.73634097	     10.49381039	      1.77179657	     56.48349999	     20.96912964	     -3.50843162	     -1.41549855	    -12.08880094	      9.20346972	     -4.47356164	     34.00726076	    -14.36296725	      4.33125369	      0.25685683
      1.15000000	      3.37697007	     -5.53947356	      0.63710371	     -0.43648470	      0.88358147	     -0.00536559	    -22.54609588	      6.74069521	     -2.66404726	    -20.74022375	      9.58591645	      1.63783713	     57.25415370	     21.72159138	     -3.12903791	     -0.96075731	    -13.65687341	      8.84366883	     -5.04657960	     34.14723867	    -13.94783622	      4.15089729	     -0.05363277
